<svg version="1.2" xmlns="http://www.w3.org/2000/svg" viewBox="0 0 100 100" width="100" height="100">
	<title>noun-knot-4832539-svg</title>
	<style>
		tspan { white-space:pre } 
		.s0 { fill: none } 
		.s1 { fill: #000000 } 
		.t2 { font-size: 5px;fill: #000000;font-family: "' Helvetica  Neue'" } 
	</style>
	<path class="s0" d="m0 0h100v100h-100z"/>
	<g>
		<path fill-rule="evenodd" class="s1" d="m19.4 51.7c-7.9 7.9-7.9 20.9 0 28.9 7.8 7.7 20.2 7.9 28.2 0.6l-12.1-12.1c-1.3 0.7-2.9 0.5-4-0.6-1.3-1.3-1.3-3.4 0-4.8 0 0 12.9-12.9 16.1-16.1l-12-12z"/>
		<path fill-rule="evenodd" class="s1" d="m48.3 19.5c-7.9-8-20.9-8-28.9 0-7.7 7.7-7.9 20.1-0.6 28.1l12.1-12.1c-0.7-1.3-0.5-2.9 0.6-4 1.3-1.3 3.5-1.3 4.8 0 0 0 12.9 12.9 16.1 16.1l12-12z"/>
		<path fill-rule="evenodd" class="s1" d="m51.7 80.6c7.9 7.9 20.9 7.9 28.9 0 7.7-7.8 7.9-20.2 0.6-28.2l-12.1 12.1c0.7 1.3 0.5 2.9-0.6 4-1.3 1.3-3.5 1.3-4.8 0 0 0-12.9-12.9-16.1-16.1l-12 12z"/>
		<path fill-rule="evenodd" class="s1" d="m80.5 48.3c8-7.9 8-20.9 0-28.9-7.7-7.7-20.1-7.9-28.1-0.6l12.1 12.1c1.3-0.7 2.9-0.5 4 0.6 1.3 1.3 1.3 3.4 0 4.8 0 0-13 12.9-16.1 16.1l12 12z"/>
	</g>
	<text id="Created by Zach Bogart" style="transform: matrix(1,0,0,1,0,115)" >
		<tspan x="0" y="0" class="t2">Created by Zach Bogart
</tspan>
	</text>
	<text id="from the Noun Project" style="transform: matrix(1,0,0,1,0,120)" >
		<tspan x="0" y="0" class="t2">from the Noun Project
</tspan>
	</text>
</svg>